{
	"asset":{
		"generator":"Khronos glTF Blender I/O v4.0.44",
		"version":"2.0"
	},
	"scene":0,
	"scenes":[
		{
			"name":"Scene",
			"nodes":[
				0,
				1,
				2,
				3,
				4,
				5,
				6,
				7,
				8
			]
		}
	],
	"nodes":[
		{
			"mesh":0,
			"name":"Sphere.001",
			"scale":[
				0.02163645066320896,
				0.021635795012116432,
				0.021635795012116432
			]
		},
		{
			"mesh":1,
			"name":"Sphere.002",
			"scale":[
				0.01967865228652954,
				0.019678344950079918,
				0.019678344950079918
			]
		},
		{
			"mesh":2,
			"name":"Sphere.003",
			"scale":[
				0.01790301874279976,
				0.017902718856930733,
				0.017902718856930733
			]
		},
		{
			"mesh":3,
			"name":"Sphere.004",
			"scale":[
				0.018261326476931572,
				0.018260996788740158,
				0.018260996788740158
			]
		},
		{
			"mesh":4,
			"name":"Sphere.005",
			"scale":[
				0.012454277835786343,
				0.012453948147594929,
				0.012453948147594929
			]
		},
		{
			"mesh":5,
			"name":"Sphere.006",
			"scale":[
				-0.01557056326419115,
				-0.015570892952382565,
				-0.015570892952382565
			]
		},
		{
			"mesh":6,
			"name":"Sphere.007",
			"scale":[
				0.019678669050335884,
				0.019678344950079918,
				0.019678344950079918
			]
		},
		{
			"mesh":7,
			"name":"Sphere.008",
			"scale":[
				0.019678669050335884,
				0.019678344950079918,
				0.019678344950079918
			]
		},
		{
			"mesh":8,
			"name":"Sphere.009",
			"scale":[
				0.019678669050335884,
				0.019678344950079918,
				0.019678344950079918
			]
		}
	],
	"animations":[
		{
			"channels":[
				{
					"sampler":0,
					"target":{
						"node":0,
						"path":"scale"
					}
				}
			],
			"name":"Sphere.001Action.002",
			"samplers":[
				{
					"input":28,
					"interpolation":"LINEAR",
					"output":29
				}
			]
		},
		{
			"channels":[
				{
					"sampler":0,
					"target":{
						"node":1,
						"path":"scale"
					}
				}
			],
			"name":"Sphere.002Action.003",
			"samplers":[
				{
					"input":28,
					"interpolation":"LINEAR",
					"output":30
				}
			]
		},
		{
			"channels":[
				{
					"sampler":0,
					"target":{
						"node":2,
						"path":"scale"
					}
				}
			],
			"name":"Sphere.003Action.002",
			"samplers":[
				{
					"input":28,
					"interpolation":"LINEAR",
					"output":31
				}
			]
		},
		{
			"channels":[
				{
					"sampler":0,
					"target":{
						"node":3,
						"path":"scale"
					}
				}
			],
			"name":"Sphere.004Action.002",
			"samplers":[
				{
					"input":28,
					"interpolation":"LINEAR",
					"output":32
				}
			]
		},
		{
			"channels":[
				{
					"sampler":0,
					"target":{
						"node":4,
						"path":"scale"
					}
				}
			],
			"name":"Sphere.005Action.002",
			"samplers":[
				{
					"input":28,
					"interpolation":"LINEAR",
					"output":33
				}
			]
		},
		{
			"channels":[
				{
					"sampler":0,
					"target":{
						"node":5,
						"path":"scale"
					}
				}
			],
			"name":"Sphere.006Action.003",
			"samplers":[
				{
					"input":28,
					"interpolation":"LINEAR",
					"output":34
				}
			]
		},
		{
			"channels":[
				{
					"sampler":0,
					"target":{
						"node":6,
						"path":"scale"
					}
				}
			],
			"name":"Sphere.007Action.001",
			"samplers":[
				{
					"input":28,
					"interpolation":"LINEAR",
					"output":35
				}
			]
		},
		{
			"channels":[
				{
					"sampler":0,
					"target":{
						"node":7,
						"path":"scale"
					}
				}
			],
			"name":"Sphere.008Action.001",
			"samplers":[
				{
					"input":28,
					"interpolation":"LINEAR",
					"output":36
				}
			]
		},
		{
			"channels":[
				{
					"sampler":0,
					"target":{
						"node":8,
						"path":"scale"
					}
				}
			],
			"name":"Sphere.009Action.001",
			"samplers":[
				{
					"input":28,
					"interpolation":"LINEAR",
					"output":37
				}
			]
		}
	],
	"materials":[
		{
			"doubleSided":true,
			"name":"Material.001",
			"pbrMetallicRoughness":{
				"baseColorTexture":{
					"index":0
				},
				"metallicFactor":0,
				"roughnessFactor":0.5
			}
		},
		{
			"doubleSided":true,
			"name":"Material.002",
			"pbrMetallicRoughness":{
				"baseColorTexture":{
					"index":1
				},
				"metallicFactor":0,
				"roughnessFactor":0.5
			}
		},
		{
			"doubleSided":true,
			"name":"Material.003",
			"pbrMetallicRoughness":{
				"baseColorTexture":{
					"index":2
				},
				"metallicFactor":0,
				"roughnessFactor":0.5
			}
		},
		{
			"doubleSided":true,
			"name":"Material.004",
			"pbrMetallicRoughness":{
				"baseColorTexture":{
					"index":3
				},
				"metallicFactor":0,
				"roughnessFactor":0.5
			}
		},
		{
			"doubleSided":true,
			"name":"Material.005",
			"pbrMetallicRoughness":{
				"baseColorTexture":{
					"index":4
				},
				"metallicFactor":0,
				"roughnessFactor":0.5
			}
		},
		{
			"doubleSided":true,
			"name":"Material.006",
			"pbrMetallicRoughness":{
				"baseColorTexture":{
					"index":5
				},
				"metallicFactor":0,
				"roughnessFactor":0.5
			}
		},
		{
			"doubleSided":true,
			"name":"Material.007",
			"pbrMetallicRoughness":{
				"baseColorTexture":{
					"index":6
				},
				"metallicFactor":0,
				"roughnessFactor":0.5
			}
		},
		{
			"doubleSided":true,
			"name":"Material.008",
			"pbrMetallicRoughness":{
				"baseColorTexture":{
					"index":7
				},
				"metallicFactor":0,
				"roughnessFactor":0.5
			}
		},
		{
			"doubleSided":true,
			"name":"Material.009",
			"pbrMetallicRoughness":{
				"baseColorTexture":{
					"index":8
				},
				"metallicFactor":0,
				"roughnessFactor":0.5
			}
		}
	],
	"meshes":[
		{
			"name":"Sphere.001",
			"primitives":[
				{
					"attributes":{
						"POSITION":0,
						"NORMAL":1,
						"TEXCOORD_0":2
					},
					"indices":3,
					"material":0
				}
			]
		},
		{
			"name":"Sphere.002",
			"primitives":[
				{
					"attributes":{
						"POSITION":4,
						"NORMAL":5,
						"TEXCOORD_0":6
					},
					"indices":3,
					"material":1
				}
			]
		},
		{
			"name":"Sphere.003",
			"primitives":[
				{
					"attributes":{
						"POSITION":7,
						"NORMAL":8,
						"TEXCOORD_0":9
					},
					"indices":3,
					"material":2
				}
			]
		},
		{
			"name":"Sphere.004",
			"primitives":[
				{
					"attributes":{
						"POSITION":10,
						"NORMAL":11,
						"TEXCOORD_0":12
					},
					"indices":3,
					"material":3
				}
			]
		},
		{
			"name":"Sphere.005",
			"primitives":[
				{
					"attributes":{
						"POSITION":13,
						"NORMAL":14,
						"TEXCOORD_0":15
					},
					"indices":3,
					"material":4
				}
			]
		},
		{
			"name":"Sphere.006",
			"primitives":[
				{
					"attributes":{
						"POSITION":16,
						"NORMAL":17,
						"TEXCOORD_0":18
					},
					"indices":3,
					"material":5
				}
			]
		},
		{
			"name":"Sphere.007",
			"primitives":[
				{
					"attributes":{
						"POSITION":19,
						"NORMAL":20,
						"TEXCOORD_0":21
					},
					"indices":3,
					"material":6
				}
			]
		},
		{
			"name":"Sphere.008",
			"primitives":[
				{
					"attributes":{
						"POSITION":22,
						"NORMAL":23,
						"TEXCOORD_0":24
					},
					"indices":3,
					"material":7
				}
			]
		},
		{
			"name":"Sphere.009",
			"primitives":[
				{
					"attributes":{
						"POSITION":25,
						"NORMAL":26,
						"TEXCOORD_0":27
					},
					"indices":3,
					"material":8
				}
			]
		}
	],
	"textures":[
		{
			"sampler":0,
			"source":0
		},
		{
			"sampler":0,
			"source":1
		},
		{
			"sampler":0,
			"source":2
		},
		{
			"sampler":0,
			"source":3
		},
		{
			"sampler":0,
			"source":4
		},
		{
			"sampler":0,
			"source":5
		},
		{
			"sampler":0,
			"source":6
		},
		{
			"sampler":0,
			"source":7
		},
		{
			"sampler":0,
			"source":8
		}
	],
	"images":[
		{
			"mimeType":"image/jpeg",
			"name":"2k_sun",
			"uri":"2k_sun.jpg"
		},
		{
			"mimeType":"image/jpeg",
			"name":"2k_sun2",
			"uri":"2k_sun2.jpg"
		},
		{
			"mimeType":"image/jpeg",
			"name":"2k_sun3",
			"uri":"2k_sun3.jpg"
		},
		{
			"mimeType":"image/jpeg",
			"name":"2k_sun4",
			"uri":"2k_sun4.jpg"
		},
		{
			"mimeType":"image/jpeg",
			"name":"2k_sun5",
			"uri":"2k_sun5.jpg"
		},
		{
			"mimeType":"image/jpeg",
			"name":"2k_sun-red",
			"uri":"2k_sun-red.jpg"
		},
		{
			"mimeType":"image/jpeg",
			"name":"2k_sun-blue",
			"uri":"2k_sun-blue.jpg"
		},
		{
			"mimeType":"image/jpeg",
			"name":"2k_sun-blue2",
			"uri":"2k_sun-blue2.jpg"
		},
		{
			"mimeType":"image/jpeg",
			"name":"2k_sun-blue3",
			"uri":"2k_sun-blue3.jpg"
		}
	],
	"accessors":[
		{
			"bufferView":0,
			"componentType":5126,
			"count":31744,
			"max":[
				0.9872310161590576,
				0.9975767135620117,
				0.9872307181358337
			],
			"min":[
				-0.9872305393218994,
				-0.9975767135620117,
				-0.9872310161590576
			],
			"type":"VEC3"
		},
		{
			"bufferView":1,
			"componentType":5126,
			"count":31744,
			"type":"VEC3"
		},
		{
			"bufferView":2,
			"componentType":5126,
			"count":31744,
			"type":"VEC2"
		},
		{
			"bufferView":3,
			"componentType":5123,
			"count":47616,
			"type":"SCALAR"
		},
		{
			"bufferView":4,
			"componentType":5126,
			"count":31744,
			"max":[
				0.9872310161590576,
				0.9975767135620117,
				0.9872307181358337
			],
			"min":[
				-0.9872305393218994,
				-0.9975767135620117,
				-0.9872310161590576
			],
			"type":"VEC3"
		},
		{
			"bufferView":5,
			"componentType":5126,
			"count":31744,
			"type":"VEC3"
		},
		{
			"bufferView":6,
			"componentType":5126,
			"count":31744,
			"type":"VEC2"
		},
		{
			"bufferView":7,
			"componentType":5126,
			"count":31744,
			"max":[
				0.9872310161590576,
				0.9975767135620117,
				0.9872307181358337
			],
			"min":[
				-0.9872305393218994,
				-0.9975767135620117,
				-0.9872310161590576
			],
			"type":"VEC3"
		},
		{
			"bufferView":8,
			"componentType":5126,
			"count":31744,
			"type":"VEC3"
		},
		{
			"bufferView":9,
			"componentType":5126,
			"count":31744,
			"type":"VEC2"
		},
		{
			"bufferView":10,
			"componentType":5126,
			"count":31744,
			"max":[
				0.9872310161590576,
				0.9975767135620117,
				0.9872307181358337
			],
			"min":[
				-0.9872305393218994,
				-0.9975767135620117,
				-0.9872310161590576
			],
			"type":"VEC3"
		},
		{
			"bufferView":11,
			"componentType":5126,
			"count":31744,
			"type":"VEC3"
		},
		{
			"bufferView":12,
			"componentType":5126,
			"count":31744,
			"type":"VEC2"
		},
		{
			"bufferView":13,
			"componentType":5126,
			"count":31744,
			"max":[
				0.9872310161590576,
				0.9975767135620117,
				0.9872307181358337
			],
			"min":[
				-0.9872305393218994,
				-0.9975767135620117,
				-0.9872310161590576
			],
			"type":"VEC3"
		},
		{
			"bufferView":14,
			"componentType":5126,
			"count":31744,
			"type":"VEC3"
		},
		{
			"bufferView":15,
			"componentType":5126,
			"count":31744,
			"type":"VEC2"
		},
		{
			"bufferView":16,
			"componentType":5126,
			"count":31744,
			"max":[
				0.9872310161590576,
				0.9975767135620117,
				0.9872307181358337
			],
			"min":[
				-0.9872305393218994,
				-0.9975767135620117,
				-0.9872310161590576
			],
			"type":"VEC3"
		},
		{
			"bufferView":17,
			"componentType":5126,
			"count":31744,
			"type":"VEC3"
		},
		{
			"bufferView":18,
			"componentType":5126,
			"count":31744,
			"type":"VEC2"
		},
		{
			"bufferView":19,
			"componentType":5126,
			"count":31744,
			"max":[
				0.9872310161590576,
				0.9975767135620117,
				0.9872307181358337
			],
			"min":[
				-0.9872305393218994,
				-0.9975767135620117,
				-0.9872310161590576
			],
			"type":"VEC3"
		},
		{
			"bufferView":20,
			"componentType":5126,
			"count":31744,
			"type":"VEC3"
		},
		{
			"bufferView":21,
			"componentType":5126,
			"count":31744,
			"type":"VEC2"
		},
		{
			"bufferView":22,
			"componentType":5126,
			"count":31744,
			"max":[
				0.9872310161590576,
				0.9975767135620117,
				0.9872307181358337
			],
			"min":[
				-0.9872305393218994,
				-0.9975767135620117,
				-0.9872310161590576
			],
			"type":"VEC3"
		},
		{
			"bufferView":23,
			"componentType":5126,
			"count":31744,
			"type":"VEC3"
		},
		{
			"bufferView":24,
			"componentType":5126,
			"count":31744,
			"type":"VEC2"
		},
		{
			"bufferView":25,
			"componentType":5126,
			"count":31744,
			"max":[
				0.9872310161590576,
				0.9975767135620117,
				0.9872307181358337
			],
			"min":[
				-0.9872305393218994,
				-0.9975767135620117,
				-0.9872310161590576
			],
			"type":"VEC3"
		},
		{
			"bufferView":26,
			"componentType":5126,
			"count":31744,
			"type":"VEC3"
		},
		{
			"bufferView":27,
			"componentType":5126,
			"count":31744,
			"type":"VEC2"
		},
		{
			"bufferView":28,
			"componentType":5126,
			"count":551,
			"max":[
				45.833333333333336
			],
			"min":[
				0
			],
			"type":"SCALAR"
		},
		{
			"bufferView":29,
			"componentType":5126,
			"count":551,
			"type":"VEC3"
		},
		{
			"bufferView":30,
			"componentType":5126,
			"count":551,
			"type":"VEC3"
		},
		{
			"bufferView":31,
			"componentType":5126,
			"count":551,
			"type":"VEC3"
		},
		{
			"bufferView":32,
			"componentType":5126,
			"count":551,
			"type":"VEC3"
		},
		{
			"bufferView":33,
			"componentType":5126,
			"count":551,
			"type":"VEC3"
		},
		{
			"bufferView":34,
			"componentType":5126,
			"count":551,
			"type":"VEC3"
		},
		{
			"bufferView":35,
			"componentType":5126,
			"count":551,
			"type":"VEC3"
		},
		{
			"bufferView":36,
			"componentType":5126,
			"count":551,
			"type":"VEC3"
		},
		{
			"bufferView":37,
			"componentType":5126,
			"count":551,
			"type":"VEC3"
		}
	],
	"bufferViews":[
		{
			"buffer":0,
			"byteLength":380928,
			"byteOffset":0,
			"target":34962
		},
		{
			"buffer":0,
			"byteLength":380928,
			"byteOffset":380928,
			"target":34962
		},
		{
			"buffer":0,
			"byteLength":253952,
			"byteOffset":761856,
			"target":34962
		},
		{
			"buffer":0,
			"byteLength":95232,
			"byteOffset":1015808,
			"target":34963
		},
		{
			"buffer":0,
			"byteLength":380928,
			"byteOffset":1111040,
			"target":34962
		},
		{
			"buffer":0,
			"byteLength":380928,
			"byteOffset":1491968,
			"target":34962
		},
		{
			"buffer":0,
			"byteLength":253952,
			"byteOffset":1872896,
			"target":34962
		},
		{
			"buffer":0,
			"byteLength":380928,
			"byteOffset":2126848,
			"target":34962
		},
		{
			"buffer":0,
			"byteLength":380928,
			"byteOffset":2507776,
			"target":34962
		},
		{
			"buffer":0,
			"byteLength":253952,
			"byteOffset":2888704,
			"target":34962
		},
		{
			"buffer":0,
			"byteLength":380928,
			"byteOffset":3142656,
			"target":34962
		},
		{
			"buffer":0,
			"byteLength":380928,
			"byteOffset":3523584,
			"target":34962
		},
		{
			"buffer":0,
			"byteLength":253952,
			"byteOffset":3904512,
			"target":34962
		},
		{
			"buffer":0,
			"byteLength":380928,
			"byteOffset":4158464,
			"target":34962
		},
		{
			"buffer":0,
			"byteLength":380928,
			"byteOffset":4539392,
			"target":34962
		},
		{
			"buffer":0,
			"byteLength":253952,
			"byteOffset":4920320,
			"target":34962
		},
		{
			"buffer":0,
			"byteLength":380928,
			"byteOffset":5174272,
			"target":34962
		},
		{
			"buffer":0,
			"byteLength":380928,
			"byteOffset":5555200,
			"target":34962
		},
		{
			"buffer":0,
			"byteLength":253952,
			"byteOffset":5936128,
			"target":34962
		},
		{
			"buffer":0,
			"byteLength":380928,
			"byteOffset":6190080,
			"target":34962
		},
		{
			"buffer":0,
			"byteLength":380928,
			"byteOffset":6571008,
			"target":34962
		},
		{
			"buffer":0,
			"byteLength":253952,
			"byteOffset":6951936,
			"target":34962
		},
		{
			"buffer":0,
			"byteLength":380928,
			"byteOffset":7205888,
			"target":34962
		},
		{
			"buffer":0,
			"byteLength":380928,
			"byteOffset":7586816,
			"target":34962
		},
		{
			"buffer":0,
			"byteLength":253952,
			"byteOffset":7967744,
			"target":34962
		},
		{
			"buffer":0,
			"byteLength":380928,
			"byteOffset":8221696,
			"target":34962
		},
		{
			"buffer":0,
			"byteLength":380928,
			"byteOffset":8602624,
			"target":34962
		},
		{
			"buffer":0,
			"byteLength":253952,
			"byteOffset":8983552,
			"target":34962
		},
		{
			"buffer":0,
			"byteLength":2204,
			"byteOffset":9237504
		},
		{
			"buffer":0,
			"byteLength":6612,
			"byteOffset":9239708
		},
		{
			"buffer":0,
			"byteLength":6612,
			"byteOffset":9246320
		},
		{
			"buffer":0,
			"byteLength":6612,
			"byteOffset":9252932
		},
		{
			"buffer":0,
			"byteLength":6612,
			"byteOffset":9259544
		},
		{
			"buffer":0,
			"byteLength":6612,
			"byteOffset":9266156
		},
		{
			"buffer":0,
			"byteLength":6612,
			"byteOffset":9272768
		},
		{
			"buffer":0,
			"byteLength":6612,
			"byteOffset":9279380
		},
		{
			"buffer":0,
			"byteLength":6612,
			"byteOffset":9285992
		},
		{
			"buffer":0,
			"byteLength":6612,
			"byteOffset":9292604
		}
	],
	"samplers":[
		{
			"magFilter":9729,
			"minFilter":9987
		}
	],
	"buffers":[
		{
			"byteLength":9299216,
			"uri":"edadsolar_25.bin"
		}
	]
}
